<svg width="650" height="500" xmlns="http://www.w3.org/2000/svg">
 <style type="text/css">.st0{fill:#FFFFFF;}
	.st1{fill:#8E0A82;}
	.st2{fill:#004F9D;}
	.st3{fill:#0C89CB;}
	.st4{fill:#009742;}
	.st5{fill:#FAED13;}
	.st6{fill:#EF8A00;}
	.st7{fill:#E40317;}
	.st8{fill:#131415;}
	.st9{fill:#E50618;}</style>

 <g>
  <title>background</title>
  <rect fill="none" id="canvas_background" height="502" width="652" y="-1" x="-1"/>
 </g>
 <g>
  <title>Layer 1</title>
  <g id="svg_1">
   <path fill="#ffffff" id="svg_2" d="m311.303292,256.660732c-26.8,0 -48.7,21.8 -48.7,48.7c0,26.8 21.8,48.7 48.7,48.7c26.8,0 48.7,-21.8 48.7,-48.7c0,-26.9 -21.8,-48.7 -48.7,-48.7" class="st0"/>
   <path fill="#ffffff" id="svg_3" d="m208.403292,219.360732c-0.3,0.5 -0.3,1.2 0.1,1.7c0.2,0.2 0.4,0.4 0.6,0.6l51.6,30l0.1,0.1c0.5,0.3 1.2,0.3 1.8,-0.1c0.2,-0.1 0.3,-0.3 0.4,-0.4c0.1,-0.1 0.1,-0.2 0.1,-0.2c4.8,-8.4 11.4,-16 19.8,-21.9c8.5,-6 17.8,-9.7 27.4,-11.4c0.1,0 0.1,0 0.2,0c0.2,0 0.4,-0.1 0.6,-0.3c0.5,-0.4 0.8,-1 0.7,-1.6l0,-0.1l-10.9,-58.6l0,-0.1c0,-0.2 -0.1,-0.5 -0.3,-0.7c-0.4,-0.5 -1,-0.7 -1.5,-0.7c-0.1,0 -0.1,0 -0.1,0l0,0c-18.2,3.3 -36.3,10.6 -52.4,22c-16.2,11.2 -29,25.6 -38.2,41.7" class="st1"/>
   <path fill="#ffffff" id="svg_4" d="m179.003292,332.660732c0.2,0.5 0.8,0.9 1.4,1c0.3,0 0.6,0 0.8,-0.1l55.7,-21.4l0.1,0c0.6,-0.2 1,-0.8 1,-1.4c0,-0.2 0,-0.4 -0.1,-0.6c0,-0.1 -0.1,-0.2 -0.1,-0.3c-3.6,-9 -5.3,-18.9 -4.7,-29.2c0.6,-10.3 3.6,-20 8.2,-28.5c0,-0.1 0.1,-0.1 0.1,-0.2c0.1,-0.2 0.1,-0.4 0.2,-0.6c0,-0.7 -0.3,-1.3 -0.8,-1.6l-0.1,-0.1l-52.6,-28.2l-0.1,0c-0.2,-0.1 -0.5,-0.2 -0.7,-0.2c-0.6,0 -1.2,0.3 -1.5,0.8c0,0 0,0.1 -0.1,0.1l0,0c-8.8,16.3 -14.5,34.9 -15.6,54.6c-1.2,19.7 2.1,38.7 8.9,55.9" class="st2"/>
   <path fill="#ffffff" id="svg_5" d="m249.703292,425.760732c0.6,0.1 1.2,0 1.6,-0.5c0.2,-0.2 0.3,-0.5 0.4,-0.7l17.7,-57l0,-0.1c0.2,-0.6 0,-1.3 -0.5,-1.7c-0.2,-0.1 -0.3,-0.2 -0.5,-0.3c-0.1,0 -0.2,-0.1 -0.3,-0.1c-9.3,-2.8 -18.1,-7.5 -25.8,-14.4c-7.7,-6.9 -13.4,-15.2 -17.2,-24.1c0,-0.1 0,-0.1 -0.1,-0.2c-0.1,-0.2 -0.2,-0.4 -0.4,-0.5c-0.5,-0.4 -1.2,-0.5 -1.7,-0.3l-0.1,0l-54.7,23.7l-0.1,0c-0.2,0.1 -0.4,0.2 -0.6,0.4c-0.4,0.5 -0.5,1.1 -0.3,1.6c0,0 0,0.1 0.1,0.1l0,0c7.3,17 18.4,33 33.1,46.2c14.8,13.3 31.7,22.6 49.4,27.9" class="st3"/>
   <path fill="#ffffff" id="svg_6" d="m366.003292,428.560732c0.5,-0.4 0.7,-1 0.7,-1.6c0,-0.3 -0.1,-0.5 -0.3,-0.8l-33.2,-49.5l-0.1,-0.1c-0.4,-0.5 -1,-0.8 -1.6,-0.7c-0.2,0 -0.4,0.1 -0.6,0.2c-0.1,0 -0.2,0.1 -0.2,0.2c-8,5.5 -17.2,9.4 -27.4,11c-10.2,1.7 -20.3,1 -29.6,-1.7c-0.1,0 -0.1,0 -0.2,-0.1c-0.2,0 -0.4,-0.1 -0.6,0c-0.7,0.1 -1.2,0.6 -1.3,1.2l0,0.1l-15.9,57.5l0,0.1c-0.1,0.2 -0.1,0.5 0,0.7c0.1,0.6 0.5,1.1 1.1,1.3c0,0 0.1,0 0.1,0l0,0c17.8,5 37.2,6.4 56.7,3.2c19.4,-3.2 37.1,-10.5 52.4,-21" class="st4"/>
   <path fill="#ffffff" id="svg_7" d="m441.803292,339.760732c0,-0.6 -0.3,-1.2 -0.8,-1.5c-0.2,-0.1 -0.5,-0.2 -0.8,-0.2l-59.5,-4.6l-0.1,0c-0.6,0 -1.2,0.3 -1.5,0.9c-0.1,0.2 -0.2,0.4 -0.2,0.6c0,0.1 0,0.2 0,0.3c-0.6,9.7 -3.3,19.3 -8.3,28.3c-5,9.1 -11.8,16.5 -19.7,22.1c-0.1,0 -0.1,0.1 -0.2,0.1c-0.2,0.1 -0.3,0.3 -0.4,0.5c-0.3,0.6 -0.3,1.3 0.1,1.8l0.1,0.1l35.3,48.1l0.1,0.1c0.1,0.2 0.3,0.4 0.6,0.5c0.6,0.3 1.2,0.2 1.7,-0.1c0,0 0.1,-0.1 0.1,-0.1l0,0c15,-10.9 28.1,-25.3 37.7,-42.5c9.2,-17.4 14.5,-35.9 15.8,-54.4" class="st5"/>
   <path fill="#ffffff" id="svg_8" d="m419.303292,224.960732c-0.5,-0.4 -1.1,-0.5 -1.7,-0.3c-0.3,0.1 -0.5,0.3 -0.7,0.5l-41,43.3l-0.1,0.1c-0.4,0.5 -0.5,1.1 -0.3,1.7c0.1,0.2 0.2,0.4 0.3,0.5c0.1,0.1 0.1,0.1 0.2,0.2c7.1,6.6 12.9,14.8 16.8,24.3c3.9,9.6 5.4,19.6 4.8,29.3c0,0.1 0,0.1 0,0.2c0,0.2 0,0.4 0.1,0.6c0.3,0.6 0.8,1 1.4,1l0.1,0l59.6,2.9l0.1,0c0.2,0 0.5,0 0.7,-0.1c0.6,-0.2 0.9,-0.8 1,-1.3c0,0 0,-0.1 0,-0.1l0,0c1,-18.5 -1.9,-37.7 -9.3,-56c-7.4,-18.4 -18.4,-34.2 -32,-46.8" class="st6"/>
   <path fill="#ffffff" id="svg_9" d="m315.003292,171.660732c-0.6,0.1 -1.1,0.5 -1.3,1.1c-0.1,0.3 -0.1,0.6 0,0.8l8.7,59l0,0.1c0.1,0.6 0.6,1.1 1.2,1.3c0.2,0.1 0.4,0.1 0.6,0.1c0.1,0 0.2,0 0.3,0c9.6,-1.5 19.6,-1.1 29.5,1.8c9.9,2.9 18.7,7.9 26,14.3c0,0 0.1,0.1 0.2,0.1c0.2,0.1 0.4,0.2 0.6,0.3c0.6,0.2 1.3,0 1.7,-0.5l0.1,-0.1l39,-45.1l0.1,-0.1c0.2,-0.2 0.3,-0.4 0.3,-0.6c0.2,-0.6 0,-1.2 -0.4,-1.6c0,0 -0.1,-0.1 -0.1,-0.1l0,0c-13.9,-12.2 -30.9,-21.8 -49.8,-27.2c-19.2,-5.5 -38.4,-6.5 -56.7,-3.6" class="st7"/>
   <path fill="#ffffff" id="svg_10" d="m311.303292,255.960732c-27.2,0 -49.4,22.1 -49.4,49.4c0,27.2 22.1,49.3 49.4,49.3c27.2,0 49.3,-22.1 49.3,-49.3c0.1,-27.3 -22,-49.4 -49.3,-49.4m35.9,77.2c0.8,-2 1,-4.3 1.2,-6.2c-1,0.9 -2.1,1.8 -3.2,2.7c-3.4,2.5 -7.1,4.1 -10.6,4.8l-9.5,-10.4l-0.1,0.1l6.9,12.2c-1.8,3.2 -4.5,6.2 -7.9,8.7c-1.2,0.8 -2.3,1.6 -3.5,2.2c1.8,0.3 4.1,0.8 6.2,0.7c-4.8,1.7 -9.9,2.6 -15.3,2.6c-5.4,0 -10.5,-0.9 -15.3,-2.6c2.1,0.1 4.4,-0.4 6.2,-0.7c-1.2,-0.6 -2.4,-1.4 -3.5,-2.2c-3.4,-2.5 -6.1,-5.5 -7.9,-8.7l6.9,-12.3l-0.1,-0.1l-9.6,10.4c-3.5,-0.7 -7.2,-2.3 -10.6,-4.8c-1.2,-0.8 -2.2,-1.7 -3.2,-2.7c0.2,1.8 0.5,4.2 1.2,6.2c-6,-7.7 -9.6,-17.3 -9.6,-27.8c0,-0.5 0,-1 0,-1.5c0.5,2.1 1.8,4.2 2.7,5.9c0.2,-1.3 0.6,-2.7 1,-4.1c1.3,-4.1 3.4,-7.6 5.9,-10.3l13.7,2.8l0.1,-0.2l-12.8,-5.8c-0.4,-3.6 0,-7.5 1.3,-11.5c0.4,-1.4 1,-2.7 1.6,-3.9c-1.7,0.8 -4.1,1.8 -5.8,3.3c5.9,-8.9 14.9,-15.6 25.5,-18.5c-2,1.2 -3.7,3.1 -5.1,4.5c1.3,-0.2 2.7,-0.3 4.2,-0.3c4.2,0 8.2,0.9 11.5,2.4l1.6,13.8l0.2,0l1.6,-13.8c3.3,-1.5 7.2,-2.4 11.5,-2.4c1.4,0 2.8,0.1 4.2,0.3c-1.4,-1.4 -3.1,-3.4 -5,-4.5c10.5,3 19.5,9.6 25.5,18.5c-1.7,-1.5 -4,-2.5 -5.8,-3.3c0.6,1.2 1.1,2.5 1.6,3.9c1.3,4 1.7,8 1.3,11.5l-12.7,5.8l0.1,0.2l13.6,-2.8c2.5,2.7 4.5,6.2 5.9,10.3c0.4,1.4 0.8,2.7 1,4.1c0.9,-1.7 2.1,-3.7 2.7,-5.9c0,0.5 0,1 0,1.4c-0.3,10.6 -3.8,20.3 -9.8,28" class="st8"/>
   <polygon fill="#ffffff" id="svg_11" points="291.4032826423645,298.86071014404297 299.0032887458801,322.26073455810547 323.7033009529114,322.26073455810547 331.3032765388489,298.86071014404297 311.4032826423645,284.36071014404297 " class="st8"/>
  </g>
 </g>
</svg>